<svg xmlns="http://www.w3.org/2000/svg" viewBox="0 0 39 39"><defs><style>.cls-1{fill:#171717;}.cls-2{fill:#fff;}</style></defs><g id="Layer_2" data-name="Layer 2"><g id="Layer_1-2" data-name="Layer 1"><circle class="cls-1" cx="29.5" cy="9.5" r="8.5"/><path class="cls-2" d="M29.5,2A7.5,7.5,0,1,1,22,9.5,7.5,7.5,0,0,1,29.5,2m0-2A9.5,9.5,0,1,0,39,9.5,9.51,9.51,0,0,0,29.5,0Z"/><circle class="cls-1" cx="29.5" cy="29.5" r="8.5"/><path class="cls-2" d="M29.5,22A7.5,7.5,0,1,1,22,29.5,7.5,7.5,0,0,1,29.5,22m0-2A9.5,9.5,0,1,0,39,29.5,9.51,9.51,0,0,0,29.5,20Z"/><circle class="cls-1" cx="9.5" cy="29.5" r="8.5"/><path class="cls-2" d="M9.5,22A7.5,7.5,0,1,1,2,29.5,7.5,7.5,0,0,1,9.5,22m0-2A9.5,9.5,0,1,0,19,29.5,9.51,9.51,0,0,0,9.5,20Z"/></g></g></svg>